<svg xmlns="http://www.w3.org/2000/svg" width="1200" height="630" viewBox="0 0 1200 630">
<rect width="1200" height="630" fill="#f5f3ec"/>
<rect x="0" y="0" width="1200" height="18" fill="#ffc23a"/>
<text x="70" y="110" font-family="monospace" font-size="30" fill="#5b6472">TOOL BOX KART · AI &amp; TECHNOLOGY</text>
<text x="70" y="185" font-family="monospace" font-size="64" font-weight="700" fill="#14171c">PHYSICAL AI</text>
<text x="70" y="245" font-family="system-ui, sans-serif" font-size="30" fill="#14171c">How AI agents move from software</text>
<text x="70" y="285" font-family="system-ui, sans-serif" font-size="30" fill="#14171c">to real machines and equipment</text>
<line x1="70" y1="335" x2="1130" y2="335" stroke="#e1ddce" stroke-width="3"/>
<circle cx="180" cy="455" r="78" fill="#14171c"/>
<text x="143" y="468" font-family="monospace" font-size="34" fill="#ffc23a">AI</text>
<path d="M265 455 H435" stroke="#b47b00" stroke-width="8"/><path d="M420 440 L450 455 L420 470" fill="#b47b00"/>
<rect x="470" y="395" width="160" height="120" rx="16" fill="#fff" stroke="#14171c" stroke-width="4"/>
<text x="500" y="445" font-family="monospace" font-size="26" fill="#14171c">MHS</text>
<text x="494" y="480" font-family="system-ui" font-size="18" fill="#5b6472">shared interface</text>
<path d="M640 455 H760" stroke="#b47b00" stroke-width="8"/><path d="M745 440 L775 455 L745 470" fill="#b47b00"/>
<rect x="800" y="365" width="300" height="180" rx="18" fill="#fff" stroke="#14171c" stroke-width="4"/>
<text x="835" y="410" font-family="monospace" font-size="24" fill="#14171c">PHYSICAL WORLD</text>
<circle cx="860" cy="475" r="25" fill="#ffc23a" stroke="#14171c" stroke-width="3"/>
<rect x="905" y="448" width="55" height="45" rx="8" fill="#ffc23a" stroke="#14171c" stroke-width="3"/>
<path d="M995 430 L1045 490 M1045 430 L995 490" stroke="#14171c" stroke-width="10"/>
<text x="70" y="585" font-family="system-ui, sans-serif" font-size="20" fill="#5b6472">Anthropic Model Hardware Standard · August 2026</text>
</svg>